<svg width="187" height="146" viewBox="0 0 187 146" fill="none" xmlns="http://www.w3.org/2000/svg">
<path d="M9.96 116V32H46.32C53.84 32 60.32 33.24 65.76 35.72C71.2 38.12 75.4 41.6 78.36 46.16C81.32 50.72 82.8 56.16 82.8 62.48C82.8 68.72 81.32 74.12 78.36 78.68C75.4 83.16 71.2 86.6 65.76 89C60.32 91.4 53.84 92.6 46.32 92.6H20.76L29.4 84.08V116H9.96ZM63.36 116L42.36 85.52H63.12L84.36 116H63.36ZM29.4 86.24L20.76 77.12H45.24C51.24 77.12 55.72 75.84 58.68 73.28C61.64 70.64 63.12 67.04 63.12 62.48C63.12 57.84 61.64 54.24 58.68 51.68C55.72 49.12 51.24 47.84 45.24 47.84H20.76L29.4 38.6V86.24Z" fill="#06B5D4"/>
<rect x="104" y="23" width="83" height="99" fill="#06B5D4"/>
<path d="M144.92 117.68C138.04 117.68 131.4 116.84 125 115.16C118.68 113.4 113.52 111.16 109.52 108.44L117.32 90.92C121.08 93.32 125.4 95.32 130.28 96.92C135.24 98.44 140.16 99.2 145.04 99.2C148.32 99.2 150.96 98.92 152.96 98.36C154.96 97.72 156.4 96.92 157.28 95.96C158.24 94.92 158.72 93.72 158.72 92.36C158.72 90.44 157.84 88.92 156.08 87.8C154.32 86.68 152.04 85.76 149.24 85.04C146.44 84.32 143.32 83.6 139.88 82.88C136.52 82.16 133.12 81.24 129.68 80.12C126.32 79 123.24 77.56 120.44 75.8C117.64 73.96 115.36 71.6 113.6 68.72C111.84 65.76 110.96 62.04 110.96 57.56C110.96 52.52 112.32 47.96 115.04 43.88C117.84 39.8 122 36.52 127.52 34.04C133.04 31.56 139.92 30.32 148.16 30.32C153.68 30.32 159.08 30.96 164.36 32.24C169.72 33.44 174.48 35.24 178.64 37.64L171.32 55.28C167.32 53.12 163.36 51.52 159.44 50.48C155.52 49.36 151.72 48.8 148.04 48.8C144.76 48.8 142.12 49.16 140.12 49.88C138.12 50.52 136.68 51.4 135.8 52.52C134.92 53.64 134.48 54.92 134.48 56.36C134.48 58.2 135.32 59.68 137 60.8C138.76 61.84 141.04 62.72 143.84 63.44C146.72 64.08 149.84 64.76 153.2 65.48C156.64 66.2 160.04 67.12 163.4 68.24C166.84 69.28 169.96 70.72 172.76 72.56C175.56 74.32 177.8 76.68 179.48 79.64C181.24 82.52 182.12 86.16 182.12 90.56C182.12 95.44 180.72 99.96 177.92 104.12C175.2 108.2 171.08 111.48 165.56 113.96C160.12 116.44 153.24 117.68 144.92 117.68Z" fill="#020617"/>
</svg>
