<svg width="187" height="146" viewBox="0 0 187 146" fill="none" xmlns="http://www.w3.org/2000/svg">
<path d="M9.96 116V32H46.32C53.84 32 60.32 33.24 65.76 35.72C71.2 38.12 75.4 41.6 78.36 46.16C81.32 50.72 82.8 56.16 82.8 62.48C82.8 68.72 81.32 74.12 78.36 78.68C75.4 83.16 71.2 86.6 65.76 89C60.32 91.4 53.84 92.6 46.32 92.6H20.76L29.4 84.08V116H9.96ZM63.36 116L42.36 85.52H63.12L84.36 116H63.36ZM29.4 86.24L20.76 77.12H45.24C51.24 77.12 55.72 75.84 58.68 73.28C61.64 70.64 63.12 67.04 63.12 62.48C63.12 57.84 61.64 54.24 58.68 51.68C55.72 49.12 51.24 47.84 45.24 47.84H20.76L29.4 38.6V86.24Z" fill="#06B5D4"/>
<rect x="104" y="23" width="83" height="99" fill="#06B5D4"/>
<path d="M144.56 117.44C137.84 117.44 131.4 116.56 125.24 114.8C119.08 112.96 114.12 110.6 110.36 107.72L116.96 93.08C120.56 95.64 124.8 97.76 129.68 99.44C134.64 101.04 139.64 101.84 144.68 101.84C148.52 101.84 151.6 101.48 153.92 100.76C156.32 99.96 158.08 98.88 159.2 97.52C160.32 96.16 160.88 94.6 160.88 92.84C160.88 90.6 160 88.84 158.24 87.56C156.48 86.2 154.16 85.12 151.28 84.32C148.4 83.44 145.2 82.64 141.68 81.92C138.24 81.12 134.76 80.16 131.24 79.04C127.8 77.92 124.64 76.48 121.76 74.72C118.88 72.96 116.52 70.64 114.68 67.76C112.92 64.88 112.04 61.2 112.04 56.72C112.04 51.92 113.32 47.56 115.88 43.64C118.52 39.64 122.44 36.48 127.64 34.16C132.92 31.76 139.52 30.56 147.44 30.56C152.72 30.56 157.92 31.2 163.04 32.48C168.16 33.68 172.68 35.52 176.6 38L170.6 52.76C166.68 50.52 162.76 48.88 158.84 47.84C154.92 46.72 151.08 46.16 147.32 46.16C143.56 46.16 140.48 46.6 138.08 47.48C135.68 48.36 133.96 49.52 132.92 50.96C131.88 52.32 131.36 53.92 131.36 55.76C131.36 57.92 132.24 59.68 134 61.04C135.76 62.32 138.08 63.36 140.96 64.16C143.84 64.96 147 65.76 150.44 66.56C153.96 67.36 157.44 68.28 160.88 69.32C164.4 70.36 167.6 71.76 170.48 73.52C173.36 75.28 175.68 77.6 177.44 80.48C179.28 83.36 180.2 87 180.2 91.4C180.2 96.12 178.88 100.44 176.24 104.36C173.6 108.28 169.64 111.44 164.36 113.84C159.16 116.24 152.56 117.44 144.56 117.44Z" fill="#020617"/>
</svg>
